<svg xmlns="http://www.w3.org/2000/svg" xmlns:xlink="http://www.w3.org/1999/xlink" width="20" height="20" viewBox="0 0 20 20">
    <defs>
        <path id="a" d="M14.627 16.278l2.042-5.999c.817-2.4.116-4.554-1.867-5.694l-1.146-.66-1.344-.111C9.94 3.617 7.996 5.002 7.165 7.446l-2.031 5.966-.495.234 6.341 1.967-.069 1.542c-.02.462.163.758.386.827.25.077.659-.09.956-.517l.837-1.198 1.845.573-.308-.562zM1.805 14.86c-.985-.305-1.093-1.572-.174-2.006l1.882-.89 1.758-5.163C6.354 3.62 9.06 1.537 12.477 1.82l.24-.702C13.006.261 13.984-.2 14.904.084c.919.285 1.426 1.207 1.134 2.065l-.24.702c2.93 1.685 3.842 4.902 2.763 8.073l-1.758 5.164.975 1.775c.477.867-.401 1.828-1.387 1.522l-2.499-.775c-.755 1.082-2.035 1.64-3.188 1.282-1.164-.36-1.85-1.528-1.792-2.826L1.805 14.86z"/>
    </defs>
    <g fill="none" fill-rule="evenodd">
        <mask id="b" fill="#fff">
            <use xlink:href="#a"/>
        </mask>
        <use fill="#0E5833" fill-rule="nonzero" xlink:href="#a"/>
        <g fill="#657786" mask="url(#b)">
            <path d="M0 0h20v20H0z"/>
        </g>
    </g>
</svg>
