<svg xmlns="http://www.w3.org/2000/svg" xmlns:xlink="http://www.w3.org/1999/xlink" width="24" height="24" viewBox="0 0 24 24">
    <defs>
        <path id="a" d="M21.996 17.471a1.213 1.213 0 0 0-1.032-1.25 15.23 15.23 0 0 1-3.33-.828 1.21 1.21 0 0 0-1.272.268l-1.404 1.402a1.003 1.003 0 0 1-1.204.162 18.68 18.68 0 0 1-7.011-6.998.999.999 0 0 1 .162-1.202l1.4-1.398c.333-.335.44-.833.272-1.276a15.13 15.13 0 0 1-.827-3.312A1.212 1.212 0 0 0 6.53 2H3.213a1.211 1.211 0 0 0-1.206 1.301 20.833 20.833 0 0 0 3.245 9.14c1.619 2.544 3.78 4.7 6.335 6.322a20.893 20.893 0 0 0 9.09 3.232 1.211 1.211 0 0 0 1.319-1.212v-3.312zm2.003 3.308a3.205 3.205 0 0 1-1.04 2.377c-.668.61-1.561.912-2.48.83a22.906 22.906 0 0 1-9.974-3.54 22.537 22.537 0 0 1-6.94-6.924A22.835 22.835 0 0 1 .013 3.497 3.204 3.204 0 0 1 .84 1.045 3.217 3.217 0 0 1 3.212 0H6.52a3.214 3.214 0 0 1 3.215 2.768c.13.985.371 1.953.718 2.881a3.206 3.206 0 0 1-.727 3.389l-.852.85a16.679 16.679 0 0 0 5.22 5.21l.855-.855a3.217 3.217 0 0 1 3.389-.723 13.24 13.24 0 0 0 2.897.72A3.21 3.21 0 0 1 24 17.482v3.297z"/>
    </defs>
    <g fill="none" fill-rule="evenodd">
        <mask id="b" fill="#fff">
            <use xlink:href="#a"/>
        </mask>
        <use fill="#919499" fill-rule="nonzero" xlink:href="#a"/>
        <g fill="#657786" mask="url(#b)">
            <path d="M0 0h24v24H0z"/>
        </g>
    </g>
</svg>
