<?xml version="1.0" encoding="utf-8"?>
<!-- Generator: Adobe Illustrator 16.0.0, SVG Export Plug-In . SVG Version: 6.00 Build 0)  -->
<!DOCTYPE svg PUBLIC "-//W3C//DTD SVG 1.1//EN" "http://www.w3.org/Graphics/SVG/1.1/DTD/svg11.dtd">
<svg version="1.1" id="Capa_1" xmlns="http://www.w3.org/2000/svg" xmlns:xlink="http://www.w3.org/1999/xlink" x="0px" y="0px"
	 width="512px" height="512px" viewBox="0 0 512 512" enable-background="new 0 0 512 512" xml:space="preserve">
<g>
	<path fill="#F04651" d="M291.39,337.681h125.859c4.72,0,7.866-3.147,7.866-7.866v-70.796c0-4.721-3.146-7.866-7.866-7.866H291.39
		c-4.72,0-7.866,3.146-7.866,7.866v70.796C283.521,334.534,286.67,337.681,291.39,337.681z M299.255,266.885h110.128v55.064H299.255
		V266.885z"/>
	<path fill="#F04651" d="M79.001,235.419h62.93c4.72,0,7.866-3.146,7.866-7.865c0-4.72-3.146-7.867-7.866-7.867h-62.93
		c-4.721,0-7.866,3.146-7.866,7.867C71.135,232.273,74.28,235.419,79.001,235.419z"/>
	<path fill="#F04651" d="M173.396,235.419h62.93c4.72,0,7.867-3.146,7.867-7.865c0-4.72-3.147-7.867-7.867-7.867h-62.93
		c-4.719,0-7.866,3.146-7.866,7.867C165.529,232.273,168.676,235.419,173.396,235.419z"/>
	<path fill="#F04651" d="M79.001,266.885h102.261c4.72,0,7.866-3.146,7.866-7.865c0-4.721-3.146-7.866-7.866-7.866H79.001
		c-4.721,0-7.866,3.146-7.866,7.866C71.135,263.739,74.28,266.885,79.001,266.885z"/>
	<path fill="#F04651" d="M236.325,251.151h-23.6c-4.719,0-7.865,3.146-7.865,7.868c0,4.719,3.146,7.864,7.865,7.864h23.6
		c4.719,0,7.865-3.146,7.865-7.864C244.19,254.298,241.044,251.151,236.325,251.151z"/>
	<path fill="#F04651" d="M504.564,153.611c-5.505-7.08-12.585-11.014-21.239-11.8l-18.878-2.288v-22.098v-15.731
		c0-17.307-14.159-31.465-31.465-31.465H71.133c-17.306-0.001-31.465,14.158-31.465,31.465v15.732v62.93v173.058
		c0,14.208,9.548,26.287,22.542,30.16c-0.396,15.913,11.643,29.728,27.804,31.196l363.421,40.904c0.787,0,2.361,0,3.147,0
		c15.732,0,29.892-11.8,31.463-26.745l23.6-252.507C512.431,168.556,510.071,159.903,504.564,153.611z M55.401,125.293h393.314
		v20.451v26.746H55.401V125.293z M71.133,85.961h361.849c8.652,0,15.731,7.08,15.731,15.733v7.865H55.401v-7.865
		C55.401,93.041,62.481,85.961,71.133,85.961z M55.401,353.414V188.222h393.314v165.192c0,8.653-7.08,15.731-15.732,15.731H71.921
		h-0.786C62.481,369.145,55.401,362.067,55.401,353.414z M495.912,173.276l-23.598,252.508c-0.788,8.652-8.653,14.944-17.308,14.16
		L92.372,399.038C84.506,398.253,79,391.96,78.213,384.88h354.769c17.305,0,31.464-14.16,31.464-31.465V180.356v-25.958
		l18.094,1.574c3.933,0,7.864,2.359,10.224,5.506C495.126,164.623,496.698,169.343,495.912,173.276z"/>
</g>
<g id="XMLID_1_">
	<g>
		<path fill="#F04651" d="M73.704,283.101c40.299,0,72.943,32.644,72.943,72.942s-32.644,72.943-72.943,72.943
			S0.761,396.343,0.761,356.044S33.405,283.101,73.704,283.101z M58.968,400.254l66.302-66.303l-14.736-14.736L58.968,370.78
			l-22.105-22.104l-14.736,14.736L58.968,400.254z"/>
		<polygon fill="#FFFFFF" points="125.27,333.951 58.968,400.254 22.126,363.412 36.863,348.676 58.968,370.78 110.533,319.215 		
			"/>
	</g>
	<g>
	</g>
</g>
</svg>
